<svg xmlns="http://www.w3.org/2000/svg" viewBox="0 0 280.93 13.57"><g id="Layer_2" data-name="Layer 2"><g id="Layer_1-2" data-name="Layer 1"><path fill="#FFFFFF" d="M1.47,8.82a1.18,1.18,0,0,1,.88.34,1.15,1.15,0,0,1,.34.87,1.1,1.1,0,0,1-.34.83,1.22,1.22,0,0,1-.88.33,1.26,1.26,0,0,1-.91-.33A1.14,1.14,0,0,1,.22,10a1.11,1.11,0,0,1,.34-.86A1.29,1.29,0,0,1,1.47,8.82Z"/><path fill="#FFFFFF" d="M1.47,11.4A1.51,1.51,0,0,1,.41,11,1.39,1.39,0,0,1,0,10,1.36,1.36,0,0,1,.41,9,1.51,1.51,0,0,1,1.47,8.6a1.44,1.44,0,0,1,1,.4,1.39,1.39,0,0,1,.41,1,1.34,1.34,0,0,1-.41,1A1.47,1.47,0,0,1,1.47,11.4ZM1.47,9a1,1,0,0,0-.76.26.88.88,0,0,0-.28.7.91.91,0,0,0,.28.7,1.05,1.05,0,0,0,.76.27,1,1,0,0,0,.73-.27A.91.91,0,0,0,2.48,10a1,1,0,0,0-.28-.72A1,1,0,0,0,1.47,9Z"/><path fill="#FFFFFF"d="M5.13,8.82A1.18,1.18,0,0,1,6,9.16a1.15,1.15,0,0,1,.34.87,1.1,1.1,0,0,1-.34.83,1.22,1.22,0,0,1-.88.33,1.26,1.26,0,0,1-.91-.33A1.14,1.14,0,0,1,3.88,10a1.11,1.11,0,0,1,.34-.86A1.29,1.29,0,0,1,5.13,8.82Z"/><path fill="#FFFFFF" d="M5.13,11.4A1.51,1.51,0,0,1,4.07,11a1.39,1.39,0,0,1-.41-1,1.36,1.36,0,0,1,.41-1A1.51,1.51,0,0,1,5.13,8.6a1.44,1.44,0,0,1,1,.4,1.39,1.39,0,0,1,.41,1,1.35,1.35,0,0,1-.41,1A1.47,1.47,0,0,1,5.13,11.4ZM5.13,9a1,1,0,0,0-.76.26.88.88,0,0,0-.28.7.91.91,0,0,0,.28.7,1.05,1.05,0,0,0,.76.27,1,1,0,0,0,.73-.27A.9.9,0,0,0,6.13,10a1,1,0,0,0-.27-.72A1,1,0,0,0,5.13,9Z"/><path fill="#FFFFFF" d="M8.79,8.82a1.2,1.2,0,0,1,.88.34A1.15,1.15,0,0,1,10,10a1.1,1.1,0,0,1-.34.83,1.23,1.23,0,0,1-.88.33,1.26,1.26,0,0,1-.91-.33A1.15,1.15,0,0,1,7.53,10a1.11,1.11,0,0,1,.35-.86A1.29,1.29,0,0,1,8.79,8.82Z"/><path fill="#FFFFFF" d="M8.79,11.4A1.51,1.51,0,0,1,7.73,11a1.39,1.39,0,0,1-.41-1,1.36,1.36,0,0,1,.41-1A1.51,1.51,0,0,1,8.79,8.6a1.44,1.44,0,0,1,1,.4,1.39,1.39,0,0,1,.41,1,1.35,1.35,0,0,1-.41,1A1.47,1.47,0,0,1,8.79,11.4ZM8.79,9A1,1,0,0,0,8,9.3a.88.88,0,0,0-.28.7.91.91,0,0,0,.28.7,1.05,1.05,0,0,0,.76.27,1,1,0,0,0,.73-.27A.9.9,0,0,0,9.79,10a.94.94,0,0,0-.28-.72A1,1,0,0,0,8.79,9Z"/><path fill="#FFFFFF" d="M12.45,8.82a1.2,1.2,0,0,1,.88.34,1.18,1.18,0,0,1,.34.87,1.14,1.14,0,0,1-.34.83,1.23,1.23,0,0,1-.88.33,1.26,1.26,0,0,1-.91-.33,1.15,1.15,0,0,1-.35-.86,1.11,1.11,0,0,1,.35-.86A1.29,1.29,0,0,1,12.45,8.82Z"/><path fill="#FFFFFF" d="M12.45,11.4A1.5,1.5,0,0,1,11.39,11,1.39,1.39,0,0,1,11,10a1.36,1.36,0,0,1,.41-1,1.51,1.51,0,0,1,1.06-.38,1.44,1.44,0,0,1,1,.4,1.39,1.39,0,0,1,.41,1,1.35,1.35,0,0,1-.41,1A1.47,1.47,0,0,1,12.45,11.4Zm0-2.36a1,1,0,0,0-.76.26.88.88,0,0,0-.28.7.91.91,0,0,0,.28.7,1.05,1.05,0,0,0,.76.27,1,1,0,0,0,.73-.27.9.9,0,0,0,.27-.67.94.94,0,0,0-.28-.72A1,1,0,0,0,12.45,9Z"/><path d="M15.46,1.31h2.93A14,14,0,0,1,21,1.49a4.92,4.92,0,0,1,1.66.69,4.38,4.38,0,0,1,1.83,4,4.37,4.37,0,0,1-2.16,4.2,5.45,5.45,0,0,1-2,.59,17.59,17.59,0,0,1-2.12.09h-2.7Zm2.07,8.5h1A3.91,3.91,0,0,0,21.41,9a3.86,3.86,0,0,0,.95-2.82,3.66,3.66,0,0,0-1.1-3,4.08,4.08,0,0,0-2.55-.65H17.53Z"/><path fill="#FFFFFF" d="M18.16,11.24H15.25V1.09h3.14A14.34,14.34,0,0,1,21,1.28,5.1,5.1,0,0,1,22.75,2a4.6,4.6,0,0,1,1.93,4.14,4.59,4.59,0,0,1-2.28,4.39,5.64,5.64,0,0,1-2.09.62A18.18,18.18,0,0,1,18.16,11.24Zm-2.48-.44h2.48a20.4,20.4,0,0,0,2.1-.08,5.46,5.46,0,0,0,1.94-.57,4.14,4.14,0,0,0,2.05-4,4.18,4.18,0,0,0-1.74-3.77,4.34,4.34,0,0,0-1.59-.66,13.34,13.34,0,0,0-2.53-.18H15.68Zm2.9-.77H17.31V2.3h1.4A4.26,4.26,0,0,1,21.4,3a3.84,3.84,0,0,1,1.18,3.15,4,4,0,0,1-1,3A4.05,4.05,0,0,1,18.58,10Zm-.84-.44h.84a3.72,3.72,0,0,0,2.68-.76,3.72,3.72,0,0,0,.88-2.67,3.48,3.48,0,0,0-1-2.82,3.93,3.93,0,0,0-2.42-.6h-1Z"/><path fill="#FFFFFF" d="M30.35,6.57V6.09a1.81,1.81,0,0,0-.29-1.15,1.25,1.25,0,0,0-1-.34c-.85,0-1.29.41-1.3,1.21H25.94a2.07,2.07,0,0,1,.67-1.58,3.65,3.65,0,0,1,2.52-.72,3.46,3.46,0,0,1,2.43.72,3.19,3.19,0,0,1,.69,2.37V11H30.49V9.64a2.35,2.35,0,0,1-2.38,1.56,2.63,2.63,0,0,1-1.83-.58A2.05,2.05,0,0,1,25.63,9a2.13,2.13,0,0,1,1.12-2,5.62,5.62,0,0,1,2.65-.45Zm0,.92a12.9,12.9,0,0,0-1.77.09,1.19,1.19,0,0,0-1.12,1.29c0,.74.41,1.11,1.21,1.11A1.51,1.51,0,0,0,30.29,8.5,7.11,7.11,0,0,0,30.35,7.49Z"/><path d="M28.11,11.42a2.82,2.82,0,0,1-2-.64A2.26,2.26,0,0,1,25.41,9a2.36,2.36,0,0,1,1.23-2.17,5.81,5.81,0,0,1,2.76-.48h.73V6.09a1.66,1.66,0,0,0-.23-1,1.07,1.07,0,0,0-.82-.26c-.74,0-1.07.31-1.08,1V6H25.72V5.81a2.28,2.28,0,0,1,.74-1.73,3.85,3.85,0,0,1,2.67-.79,3.67,3.67,0,0,1,2.58.79,3.33,3.33,0,0,1,.75,2.52v4.63H30.27v-.77A2.57,2.57,0,0,1,28.11,11.42ZM29.4,6.78a5.53,5.53,0,0,0-2.55.43,1.91,1.91,0,0,0-1,1.79,1.85,1.85,0,0,0,.57,1.46,2.46,2.46,0,0,0,1.69.53,2.14,2.14,0,0,0,2.18-1.43l.42-1v2.27H32V6.6a3,3,0,0,0-.62-2.21,3.27,3.27,0,0,0-2.28-.66,3.44,3.44,0,0,0-2.37.66,1.83,1.83,0,0,0-.6,1.21h1.42a1.3,1.3,0,0,1,1.5-1.21,1.46,1.46,0,0,1,1.15.41,2,2,0,0,1,.34,1.29v.69Zm-.73,3.42a1.24,1.24,0,0,1-1.42-1.33,1.39,1.39,0,0,1,1.29-1.5,11.78,11.78,0,0,1,1.81-.1h.22v.22a6.14,6.14,0,0,1-.07,1A1.73,1.73,0,0,1,28.67,10.2Zm1.46-2.5a10.78,10.78,0,0,0-1.52.1,1,1,0,0,0-.93,1.07c0,.62.31.89,1,.89a1.31,1.31,0,0,0,1.41-1.29A5.51,5.51,0,0,0,30.13,7.7Z"/><path d="M34.12,3.72h1.73V5.41A2.73,2.73,0,0,1,36.73,4a3.3,3.3,0,0,1,1.73-.45V5.65a2.43,2.43,0,0,0-.87-.16C36.54,5.49,36,6,36,7.13V11h-1.9Z"/><path d="M36.24,11.24H33.91V3.5h2.16v.88a2.09,2.09,0,0,1,.53-.6,3.63,3.63,0,0,1,1.85-.49h.23V6l-.29-.11a2.31,2.31,0,0,0-.8-.15c-.92,0-1.35.46-1.35,1.43Zm-1.9-.44H35.8V7.13a1.63,1.63,0,0,1,1.79-1.86,2.5,2.5,0,0,1,.66.09V3.74a2.87,2.87,0,0,0-1.39.4,2.48,2.48,0,0,0-.8,1.33l-.43,1.34V3.94H34.34Z"/><path d="M46.57,7.81H41.36c0,1.51.58,2.27,1.74,2.27a1.53,1.53,0,0,0,1.53-1.21h1.82a3,3,0,0,1-.61,1.29,3.5,3.5,0,0,1-2.77,1,3.4,3.4,0,0,1-2.5-.88,4.06,4.06,0,0,1-1.07-3,4,4,0,0,1,1-2.79,3.42,3.42,0,0,1,2.62-1,3.13,3.13,0,0,1,3,1.56A5.91,5.91,0,0,1,46.57,7.81Zm-5.19-1h3.31a2.53,2.53,0,0,0-.42-1.55,1.44,1.44,0,0,0-1.2-.56,1.48,1.48,0,0,0-1.23.57A2.46,2.46,0,0,0,41.38,6.76Z"/><path d="M43.07,11.42a3.63,3.63,0,0,1-2.65-.95,4.23,4.23,0,0,1-1.14-3.15,4.12,4.12,0,0,1,1-2.94,3.63,3.63,0,0,1,2.77-1.09A3.35,3.35,0,0,1,46.26,5a6.07,6.07,0,0,1,.53,2.84V8H41.58c.07,1.64.9,1.84,1.52,1.84A1.33,1.33,0,0,0,44.43,8.8l0-.15h2.25l-.07.27A3.18,3.18,0,0,1,46,10.3,3.7,3.7,0,0,1,43.07,11.42Zm0-7.69a3.22,3.22,0,0,0-2.46.95,3.76,3.76,0,0,0-.89,2.64,3.81,3.81,0,0,0,1,2.84,3.22,3.22,0,0,0,2.35.83,3.29,3.29,0,0,0,2.61-1,2.58,2.58,0,0,0,.49-.92H44.79a1.7,1.7,0,0,1-1.69,1.2c-.89,0-2-.43-2-2.48V7.59h5.2a5.2,5.2,0,0,0-.47-2.41A2.9,2.9,0,0,0,43.07,3.73ZM44.91,7H41.16V6.76a2.69,2.69,0,0,1,.51-1.68,1.71,1.71,0,0,1,1.4-.64,1.63,1.63,0,0,1,1.37.64,2.71,2.71,0,0,1,.47,1.68ZM41.6,6.54h2.87a2.09,2.09,0,0,0-.38-1.2,1.18,1.18,0,0,0-1-.47A1.29,1.29,0,0,0,42,5.35,2.22,2.22,0,0,0,41.6,6.54Z"/><path d="M53.43,1.91V4.08h2V5.23h-2V8.38a2.37,2.37,0,0,0,.2,1.18.76.76,0,0,0,.71.33,4.23,4.23,0,0,0,1-.2v1.22a6.77,6.77,0,0,1-1.8.28c-1.34,0-2-.79-2-2.36V5.23H50.42V4.08h1.11V1.91Z"/><path d="M53.55,11.4c-1,0-2.23-.44-2.23-2.57V5.44H50.2V3.87h1.12V1.7h2.32V3.87h2V5.44h-2V8.38a2.32,2.32,0,0,0,.17,1.07c0,.05.14.22.53.22a3.58,3.58,0,0,0,.95-.19l.28-.08v1.68l-.16,0A7.18,7.18,0,0,1,53.55,11.4ZM50.63,5h1.12V8.83c0,1.46.57,2.14,1.8,2.14a6.69,6.69,0,0,0,1.59-.23V10a3.52,3.52,0,0,1-.8.14,1,1,0,0,1-.9-.44,2.66,2.66,0,0,1-.23-1.29V5h2V4.3h-2V2.13H51.75V4.3H50.63Z"/><path d="M59.92,3.33a3.56,3.56,0,0,1,2.79,1.16,4.19,4.19,0,0,1,.9,2.89,3.69,3.69,0,0,1-1.2,3,3.89,3.89,0,0,1-2.57.85,3.63,3.63,0,0,1-2.77-1.05,4,4,0,0,1-1-2.92,3.92,3.92,0,0,1,1-2.88A3.75,3.75,0,0,1,59.92,3.33Zm-.08,1.24c-1.19,0-1.79.92-1.79,2.74S58.63,10,59.79,10s1.84-.9,1.84-2.69S61,4.57,59.84,4.57Z"/><path d="M59.84,11.45a3.88,3.88,0,0,1-2.93-1.12,4.3,4.3,0,0,1-1.06-3.07,4.19,4.19,0,0,1,1.09-3,4,4,0,0,1,3-1.11,3.79,3.79,0,0,1,2.95,1.23,4.4,4.4,0,0,1,1,3,3.89,3.89,0,0,1-1.29,3.17A4.06,4.06,0,0,1,59.84,11.45Zm.08-7.91a3.56,3.56,0,0,0-2.67,1,3.75,3.75,0,0,0-1,2.73A3.87,3.87,0,0,0,57.22,10a3.43,3.43,0,0,0,2.62,1,3.66,3.66,0,0,0,2.43-.81A3.47,3.47,0,0,0,63.4,7.38a4,4,0,0,0-.85-2.74A3.33,3.33,0,0,0,59.92,3.54Zm-.13,6.66c-1.3,0-1.95-1-1.95-2.89s.67-2.95,2-2.95,2,1,2,2.94S61.15,10.2,59.79,10.2Zm.05-5.41c-.39,0-1.57,0-1.57,2.52s1.15,2.46,1.52,2.46c1.09,0,1.62-.81,1.62-2.47C61.41,4.79,60.23,4.79,59.84,4.79Z"/><path d="M67.37.83h8.54v1.3H72.64V11h-2V2.13H67.37Z"/><path d="M72.86,11.24H70.42V2.34H67.15V.61h9V2.34H72.86Zm-2-.44h1.58V1.91H75.7V1H67.58v.87h3.27Z"/><path d="M78.91.6v5a2.6,2.6,0,0,1,2.58-1.37,2.53,2.53,0,0,1,2.1.83A2.8,2.8,0,0,1,84,6.73V11H82v-4c0-1.09-.46-1.64-1.4-1.64a1.46,1.46,0,0,0-1.38.71,3.18,3.18,0,0,0-.33,1.6V11h-2V.6Z"/><path d="M84.26,11.24H81.81V7.06c0-1.28-.68-1.42-1.19-1.42a1.23,1.23,0,0,0-1.19.6,3,3,0,0,0-.3,1.49v3.51H76.68V.39h2.45V4.84A3,3,0,0,1,81.49,4a2.74,2.74,0,0,1,2.27.9,3,3,0,0,1,.5,1.86Zm-2-.44h1.58V6.73a2.54,2.54,0,0,0-.41-1.59,2.3,2.3,0,0,0-1.92-.74,2.37,2.37,0,0,0-2.38,1.25l-.41.84V.82H77.11v10H78.7V7.73A3.38,3.38,0,0,1,79.05,6a1.68,1.68,0,0,1,1.57-.82c.74,0,1.62.33,1.62,1.86Z"/><path d="M87.22.43c.8,0,1.21.35,1.21,1.05S88,2.55,87.24,2.55a1.25,1.25,0,0,1-.88-.29A1,1,0,0,1,86,1.48C86,.78,86.43.43,87.22.43Zm1,3.65V11h-1.9V4.08Z"/><path d="M88.38,11.24H86.06V3.87h2.32Zm-1.89-.44H88V4.3H86.49Zm.75-8a1.51,1.51,0,0,1-1-.34,1.24,1.24,0,0,1-.4-1c0-.81.5-1.27,1.41-1.27s1.42.46,1.42,1.27S88.14,2.77,87.24,2.77Zm0-2.12c-.86,0-1,.45-1,.83a.77.77,0,0,0,.25.62,1.06,1.06,0,0,0,.74.24c.67,0,1-.27,1-.86C88.21,1.1,88.1.65,87.22.65Z"/><path d="M92.17,4.08V5.46A2.5,2.5,0,0,1,94.7,3.91a2.27,2.27,0,0,1,2,.88,3.07,3.07,0,0,1,.43,1.78V11h-1.9V6.91c0-1.14-.44-1.71-1.31-1.71a1.34,1.34,0,0,0-1.3.73,3.75,3.75,0,0,0-.31,1.68V11H90.41V4.08Z"/><path d="M97.33,11.24H95V6.91c0-1.34-.63-1.5-1.1-1.5A1.15,1.15,0,0,0,92.8,6a3.49,3.49,0,0,0-.28,1.58v3.63H90.19V3.87h2.19v.81a2.83,2.83,0,0,1,2.32-1,2.47,2.47,0,0,1,2.16,1,3.21,3.21,0,0,1,.47,1.91Zm-1.89-.44H96.9V6.57a2.86,2.86,0,0,0-.39-1.66,2.08,2.08,0,0,0-1.81-.78,2.3,2.3,0,0,0-2.34,1.41L92,6.5V4.3H90.63v6.5h1.46V7.61a3.89,3.89,0,0,1,.33-1.78A1.55,1.55,0,0,1,93.91,5c.7,0,1.53.34,1.53,1.93Z"/><path d="M98.8.22h1.89V11H98.8Zm4.11,6.87L106,11h-2.25L100.94,7.2l2.84-3.12h1.94Z"/><path d="M106.42,11.24h-2.8l-2.71-3.71v3.71H98.58V0h2.33V6.91l2.77-3h2.54l-3,3.23Zm-2.58-.44h1.69l-2.91-3.72,2.6-2.78h-1.35l-2.65,2.91ZM99,10.8h1.47V.43H99Z"/><path d="M107.7,13.36h-1.34L107.23,9h2.26Z"/><path d="M107.85,13.57H106.1l1-4.75h2.77Zm-1.23-.43h.94l1.61-3.89h-1.76Z"/><path d="M123.79,4.2H121.7A2.56,2.56,0,0,0,121,2.52a2.19,2.19,0,0,0-1.62-.62,2.33,2.33,0,0,0-2,1.06,5.2,5.2,0,0,0-.74,3,5.14,5.14,0,0,0,.72,3,2.32,2.32,0,0,0,2,1,2.66,2.66,0,0,0,1.21-.29,1.84,1.84,0,0,0,.82-.76,4.07,4.07,0,0,0,.34-1.4h2.09a3.92,3.92,0,0,1-.65,2.13,4.31,4.31,0,0,1-3.73,1.62,4.8,4.8,0,0,1-3.66-1.41A5.36,5.36,0,0,1,114.41,6a5.55,5.55,0,0,1,1.35-4A4.83,4.83,0,0,1,119.45.6a4.07,4.07,0,0,1,3.93,2A3.71,3.71,0,0,1,123.79,4.2Z"/><path d="M119.41,11.47A5,5,0,0,1,115.59,10a5.62,5.62,0,0,1-1.39-4,5.77,5.77,0,0,1,1.4-4.09A5,5,0,0,1,119.45.38a4.3,4.3,0,0,1,4.12,2.13A4.08,4.08,0,0,1,124,4.19l0,.23H121.5l0-.2a2.35,2.35,0,0,0-.65-1.55,2,2,0,0,0-1.47-.56,2.14,2.14,0,0,0-1.87,1A5.05,5.05,0,0,0,116.8,6a5,5,0,0,0,.68,2.83,2.09,2.09,0,0,0,1.85,1,2.48,2.48,0,0,0,1.11-.26,1.67,1.67,0,0,0,.73-.68,3.64,3.64,0,0,0,.31-1.31l0-.19H124v.22a4.11,4.11,0,0,1-.7,2.25A4.53,4.53,0,0,1,119.41,11.47Zm0-10.65a4.67,4.67,0,0,0-3.54,1.36A5.38,5.38,0,0,0,114.63,6a5.18,5.18,0,0,0,1.28,3.71,4.6,4.6,0,0,0,3.5,1.34A4.1,4.1,0,0,0,123,9.5a3.43,3.43,0,0,0,.6-1.78h-1.67A3.67,3.67,0,0,1,121.55,9a2.09,2.09,0,0,1-.91.85,2.85,2.85,0,0,1-1.31.32A2.55,2.55,0,0,1,117.12,9,5.46,5.46,0,0,1,116.37,6a5.36,5.36,0,0,1,.77-3.11,2.56,2.56,0,0,1,2.22-1.16,2.41,2.41,0,0,1,1.77.68A2.71,2.71,0,0,1,121.89,4h1.67a3.58,3.58,0,0,0-.37-1.27A3.85,3.85,0,0,0,119.45.82Z"/><path d="M125.31,4.08H127V5.69a2.64,2.64,0,0,1,.88-1.38,3.54,3.54,0,0,1,1.74-.43v2a2.52,2.52,0,0,0-.88-.16,1.39,1.39,0,0,0-1.57,1.56V11h-1.89Z"/><path d="M127.42,11.24h-2.33V3.87h2.16v.84a2,2,0,0,1,.54-.58,3.62,3.62,0,0,1,1.84-.46h.23V6.22l-.29-.1a2.54,2.54,0,0,0-.8-.14,1.17,1.17,0,0,0-1.35,1.34Zm-1.9-.44H127V7.32a1.59,1.59,0,0,1,1.79-1.77,2.48,2.48,0,0,1,.66.08V4.12a3,3,0,0,0-1.4.37,2.42,2.42,0,0,0-.79,1.27L126.82,7V4.3h-1.3Z"/><path d="M137.47,8h-5.21c0,1.43.58,2.15,1.74,2.15A1.52,1.52,0,0,0,135.53,9h1.82a2.81,2.81,0,0,1-.62,1.22,3.58,3.58,0,0,1-2.76,1,3.54,3.54,0,0,1-2.51-.84,3.72,3.72,0,0,1-1.07-2.84,3.61,3.61,0,0,1,1-2.65,3.5,3.5,0,0,1,2.62-1,3.15,3.15,0,0,1,3,1.48A5.26,5.26,0,0,1,137.47,8Zm-5.2-1h3.32a2.25,2.25,0,0,0-.43-1.48A1.44,1.44,0,0,0,134,5a1.52,1.52,0,0,0-1.23.54A2.27,2.27,0,0,0,132.27,7Z"/><path d="M134,11.42a3.73,3.73,0,0,1-2.65-.9,3.92,3.92,0,0,1-1.14-3,3.85,3.85,0,0,1,1-2.8,3.73,3.73,0,0,1,2.78-1,3.39,3.39,0,0,1,3.18,1.59A5.46,5.46,0,0,1,137.68,8V8.2h-5.2c.07,1.53.89,1.72,1.52,1.72a1.3,1.3,0,0,0,1.32-1l.05-.15h2.25l-.06.27a3,3,0,0,1-.67,1.32A3.81,3.81,0,0,1,134,11.42Zm0-7.3a3.32,3.32,0,0,0-2.47.9,3.43,3.43,0,0,0-.89,2.5,3.53,3.53,0,0,0,1,2.68A3.35,3.35,0,0,0,134,11a3.39,3.39,0,0,0,2.61-.93,2.28,2.28,0,0,0,.48-.86h-1.38A1.7,1.7,0,0,1,134,10.35c-.89,0-2-.41-2-2.37V7.76h5.21a4.9,4.9,0,0,0-.47-2.27A3,3,0,0,0,134,4.12Zm1.84,3.08h-3.76V7a2.47,2.47,0,0,1,.51-1.6,1.75,1.75,0,0,1,1.4-.61,1.68,1.68,0,0,1,1.36.6A2.5,2.5,0,0,1,135.81,7Zm-3.31-.43h2.87A1.92,1.92,0,0,0,135,5.65a1.23,1.23,0,0,0-1-.45,1.28,1.28,0,0,0-1.06.46A1.88,1.88,0,0,0,132.5,6.77Z"/><path d="M143.21,6.8V6.34a1.55,1.55,0,0,0-.29-1.08,1.24,1.24,0,0,0-1-.32q-1.27,0-1.29,1.14H138.8a1.88,1.88,0,0,1,.67-1.49A3.76,3.76,0,0,1,142,3.9a3.56,3.56,0,0,1,2.43.69,2.9,2.9,0,0,1,.69,2.24V11h-1.76V9.72A2.35,2.35,0,0,1,141,11.2a2.72,2.72,0,0,1-1.83-.55,1.91,1.91,0,0,1-.65-1.54,2,2,0,0,1,1.12-1.88,5.85,5.85,0,0,1,2.66-.43Zm0,.87a12.9,12.9,0,0,0-1.77.09A1.15,1.15,0,0,0,140.33,9q0,1,1.2,1a1.49,1.49,0,0,0,1.62-1.4A6.51,6.51,0,0,0,143.21,7.67Z"/><path d="M141,11.42a3,3,0,0,1-2-.6,2.14,2.14,0,0,1-.72-1.71A2.22,2.22,0,0,1,139.5,7a6,6,0,0,1,2.77-.45H143V6.34a1.42,1.42,0,0,0-.24-.94,1.1,1.1,0,0,0-.82-.25c-.74,0-1.07.29-1.08.94V6.3h-2.28V6.08a2.13,2.13,0,0,1,.75-1.66A4,4,0,0,1,142,3.68a3.77,3.77,0,0,1,2.58.75,3.08,3.08,0,0,1,.75,2.4v4.41h-2.19v-.73A2.65,2.65,0,0,1,141,11.42Zm1.3-4.4a5.78,5.78,0,0,0-2.56.4,1.79,1.79,0,0,0-1,1.69,1.72,1.72,0,0,0,.57,1.38A2.56,2.56,0,0,0,141,11a2.14,2.14,0,0,0,2.18-1.35l.42-1V10.8h1.32v-4a2.77,2.77,0,0,0-.61-2.08A3.41,3.41,0,0,0,142,4.12a3.61,3.61,0,0,0-2.38.63A1.67,1.67,0,0,0,139,5.87h1.41c.07-.57.41-1.15,1.5-1.15a1.45,1.45,0,0,1,1.14.39,1.76,1.76,0,0,1,.35,1.23V7Zm-.74,3.24c-.92,0-1.42-.45-1.42-1.27a1.36,1.36,0,0,1,1.3-1.44,13.3,13.3,0,0,1,1.8-.09h.22v.21a6.86,6.86,0,0,1-.06,1A1.71,1.71,0,0,1,141.53,10.26ZM143,7.89a13,13,0,0,0-1.52.09.93.93,0,0,0-.93,1c0,.39.11.83,1,.83a1.27,1.27,0,0,0,1.41-1.22A4.63,4.63,0,0,0,143,7.89Z"/><path d="M149.46,1.91V4.08h2V5.23h-2V8.38a2.37,2.37,0,0,0,.2,1.18.76.76,0,0,0,.71.33,4.23,4.23,0,0,0,1-.2v1.22a6.77,6.77,0,0,1-1.8.28c-1.34,0-2-.79-2-2.36V5.23h-1.11V4.08h1.11V1.91Z"/><path d="M149.58,11.4c-1,0-2.23-.44-2.23-2.57V5.44h-1.12V3.87h1.12V1.7h2.32V3.87h2V5.44h-2V8.38a2.32,2.32,0,0,0,.17,1.07c0,.05.14.22.53.22a3.58,3.58,0,0,0,.95-.19l.28-.08v1.68l-.16,0A7.18,7.18,0,0,1,149.58,11.4ZM146.66,5h1.12V8.83c0,1.46.57,2.14,1.8,2.14a6.69,6.69,0,0,0,1.59-.23V10a3.52,3.52,0,0,1-.8.14,1,1,0,0,1-.9-.44,2.66,2.66,0,0,1-.23-1.29V5h2V4.3h-2V2.13h-1.46V4.3h-1.12Z"/><path d="M159.64,8h-5.21c0,1.43.58,2.15,1.74,2.15A1.52,1.52,0,0,0,157.7,9h1.82a2.91,2.91,0,0,1-.61,1.22,3.62,3.62,0,0,1-2.77,1,3.56,3.56,0,0,1-2.51-.84,3.72,3.72,0,0,1-1.06-2.84,3.6,3.6,0,0,1,1-2.65,3.5,3.5,0,0,1,2.62-1,3.18,3.18,0,0,1,3,1.48A5.39,5.39,0,0,1,159.64,8Zm-5.2-1h3.32a2.25,2.25,0,0,0-.43-1.48A1.44,1.44,0,0,0,156.14,5a1.52,1.52,0,0,0-1.23.54A2.27,2.27,0,0,0,154.44,7Z"/><path d="M156.14,11.42a3.73,3.73,0,0,1-2.65-.9,3.92,3.92,0,0,1-1.14-3,3.81,3.81,0,0,1,1-2.8,3.69,3.69,0,0,1,2.77-1,3.39,3.39,0,0,1,3.18,1.59A5.45,5.45,0,0,1,159.86,8V8.2h-5.21c.07,1.53.89,1.72,1.52,1.72a1.3,1.3,0,0,0,1.32-1l0-.15h2.26l-.07.27a3,3,0,0,1-.67,1.32A3.81,3.81,0,0,1,156.14,11.42Zm0-7.3a3.35,3.35,0,0,0-2.47.9,3.43,3.43,0,0,0-.89,2.5,3.53,3.53,0,0,0,1,2.68,3.35,3.35,0,0,0,2.36.79,3.39,3.39,0,0,0,2.61-.93,2.28,2.28,0,0,0,.48-.86h-1.38a1.7,1.7,0,0,1-1.68,1.15c-.89,0-2-.41-2-2.37V7.76h5.21A4.9,4.9,0,0,0,159,5.49,3,3,0,0,0,156.14,4.12ZM158,7.2h-3.76V7a2.47,2.47,0,0,1,.51-1.6,1.75,1.75,0,0,1,1.4-.61,1.66,1.66,0,0,1,1.36.6A2.5,2.5,0,0,1,158,7Zm-3.31-.43h2.87a1.92,1.92,0,0,0-.38-1.12,1.23,1.23,0,0,0-1-.45,1.29,1.29,0,0,0-1.06.46A1.92,1.92,0,0,0,154.67,6.77Z"/><path d="M176.05,7.84H178a2.66,2.66,0,0,0,.29,1.39,2.08,2.08,0,0,0,1.85.8,2.42,2.42,0,0,0,1.49-.42,1.3,1.3,0,0,0,.56-1.11,1.33,1.33,0,0,0-.61-1.13,6.24,6.24,0,0,0-1.47-.66l-1-.37a6.33,6.33,0,0,1-1.86-.94,2.3,2.3,0,0,1-.84-1.82A2.68,2.68,0,0,1,177.9,1,5.18,5.18,0,0,1,180.22.6a3.92,3.92,0,0,1,2.66.82,3.08,3.08,0,0,1,1,2.34H182a2.72,2.72,0,0,0-.24-1.1,1.71,1.71,0,0,0-1.7-.84,1.9,1.9,0,0,0-1.27.4,1.26,1.26,0,0,0-.49,1,1.1,1.1,0,0,0,.38.86,4.3,4.3,0,0,0,1.37.67l1.14.38a6.61,6.61,0,0,1,1.9.9,2.48,2.48,0,0,1,1,2.11,2.75,2.75,0,0,1-1.41,2.52,5.17,5.17,0,0,1-2.61.55,4.68,4.68,0,0,1-3-.83A3.32,3.32,0,0,1,176.05,7.84Z"/><path d="M180.12,11.47a4.92,4.92,0,0,1-3.18-.88,3.52,3.52,0,0,1-1.1-2.74V7.62h2.35v.22a2.38,2.38,0,0,0,.25,1.27,1.86,1.86,0,0,0,1.67.7,2.29,2.29,0,0,0,1.36-.37,1.08,1.08,0,0,0,.47-.94,1.14,1.14,0,0,0-.52-1A6.16,6.16,0,0,0,180,6.91l-1-.36a6.3,6.3,0,0,1-1.93-1,2.51,2.51,0,0,1-.92-2A2.89,2.89,0,0,1,177.8.85a5.34,5.34,0,0,1,2.42-.47,4.14,4.14,0,0,1,2.8.88,3.27,3.27,0,0,1,1.07,2.49V4h-2.3V3.77a2.47,2.47,0,0,0-.23-1,1.48,1.48,0,0,0-1.5-.72,1.71,1.71,0,0,0-1.14.35,1,1,0,0,0-.4.87.89.89,0,0,0,.3.7,4,4,0,0,0,1.3.62l1.14.38a7.49,7.49,0,0,1,2,.93,2.71,2.71,0,0,1,1.12,2.29,3,3,0,0,1-1.51,2.7A5.28,5.28,0,0,1,180.12,11.47Zm-3.84-3.41a3,3,0,0,0,.94,2.2,4.53,4.53,0,0,0,2.9.77,4.9,4.9,0,0,0,2.5-.52,2.52,2.52,0,0,0,1.3-2.33A2.26,2.26,0,0,0,183,6.24a6.89,6.89,0,0,0-1.84-.87L180,5a4.41,4.41,0,0,1-1.44-.71,1.29,1.29,0,0,1-.45-1,1.5,1.5,0,0,1,.56-1.21,2.13,2.13,0,0,1,1.41-.45,1.9,1.9,0,0,1,1.89,1,2.55,2.55,0,0,1,.25,1h1.44a2.75,2.75,0,0,0-.91-1.95,3.74,3.74,0,0,0-2.52-.77,5.05,5.05,0,0,0-2.22.41,2.47,2.47,0,0,0-1.46,2.35,2.05,2.05,0,0,0,.77,1.65,6,6,0,0,0,1.8.91l1,.37a6.63,6.63,0,0,1,1.53.68,1.58,1.58,0,0,1,.7,1.31,1.53,1.53,0,0,1-.65,1.29,2.68,2.68,0,0,1-1.62.45,2.28,2.28,0,0,1-2-.89,2.59,2.59,0,0,1-.32-1.29Z"/><path d="M192.17,8H187c0,1.43.58,2.15,1.74,2.15A1.51,1.51,0,0,0,190.23,9h1.82a2.8,2.8,0,0,1-.61,1.22,3.59,3.59,0,0,1-2.77,1,3.52,3.52,0,0,1-2.5-.84,3.69,3.69,0,0,1-1.07-2.84,3.64,3.64,0,0,1,1-2.65,3.5,3.5,0,0,1,2.62-1,3.16,3.16,0,0,1,3,1.48A5.39,5.39,0,0,1,192.17,8ZM187,7h3.31a2.25,2.25,0,0,0-.43-1.48A1.44,1.44,0,0,0,188.67,5a1.52,1.52,0,0,0-1.23.54A2.27,2.27,0,0,0,187,7Z"/><path d="M188.67,11.42a3.73,3.73,0,0,1-2.65-.9,3.92,3.92,0,0,1-1.14-3,3.81,3.81,0,0,1,1-2.8,3.71,3.71,0,0,1,2.77-1,3.4,3.4,0,0,1,3.19,1.59A5.57,5.57,0,0,1,192.39,8V8.2h-5.21c.07,1.53.9,1.72,1.52,1.72a1.32,1.32,0,0,0,1.33-1l.05-.15h2.25l-.07.27a3,3,0,0,1-.66,1.32A3.83,3.83,0,0,1,188.67,11.42Zm0-7.3a3.31,3.31,0,0,0-2.46.9,3.43,3.43,0,0,0-.9,2.5,3.5,3.5,0,0,0,1,2.68,3.32,3.32,0,0,0,2.35.79,3.38,3.38,0,0,0,2.61-.93,2.28,2.28,0,0,0,.48-.86h-1.38a1.69,1.69,0,0,1-1.68,1.15c-.89,0-1.95-.41-1.95-2.37V7.76H192a4.9,4.9,0,0,0-.47-2.27A2.94,2.94,0,0,0,188.67,4.12Zm1.84,3.08h-3.75V7a2.47,2.47,0,0,1,.52-1.6,1.72,1.72,0,0,1,1.39-.61,1.65,1.65,0,0,1,1.36.6A2.5,2.5,0,0,1,190.51,7Zm-3.31-.43h2.87a1.92,1.92,0,0,0-.37-1.12,1.25,1.25,0,0,0-1-.45,1.3,1.3,0,0,0-1.06.46A1.92,1.92,0,0,0,187.2,6.77Z"/><path d="M209.89,7.18V11h-2.06V7.18L203.93.83h2.38L209,5.76,211.77.83h2.06Z"/><path d="M210.11,11.24h-2.5v-4L203.54.61h2.9L209,5.32,211.64.61h2.58l-4.11,6.64ZM208,10.8h1.63V7.12L213.44,1H211.9L209,6.21,206.18,1h-1.86L208,7.12Z"/><path d="M217.72,3.49a3.61,3.61,0,0,1,2.79,1.14,4,4,0,0,1,.91,2.83,3.58,3.58,0,0,1-1.21,2.94,4,4,0,0,1-2.57.83,3.71,3.71,0,0,1-2.77-1,3.92,3.92,0,0,1-1-2.86,3.8,3.8,0,0,1,1-2.83A3.81,3.81,0,0,1,217.72,3.49Zm-.08,1.22c-1.19,0-1.79.9-1.79,2.68S216.43,10,217.6,10s1.83-.88,1.83-2.63S218.83,4.71,217.64,4.71Z"/><path d="M217.64,11.45a3.94,3.94,0,0,1-2.93-1.09,4.18,4.18,0,0,1-1.06-3,4,4,0,0,1,1.1-3,4,4,0,0,1,3-1.1,3.84,3.84,0,0,1,2.95,1.21,4.27,4.27,0,0,1,1,3,3.78,3.78,0,0,1-1.29,3.11A4.15,4.15,0,0,1,217.64,11.45Zm.08-7.74a3.62,3.62,0,0,0-2.67,1,3.64,3.64,0,0,0-1,2.68,3.74,3.74,0,0,0,.94,2.7,3.51,3.51,0,0,0,2.62,1,3.75,3.75,0,0,0,2.43-.79,3.37,3.37,0,0,0,1.13-2.77,3.85,3.85,0,0,0-.85-2.68A3.37,3.37,0,0,0,217.72,3.71Zm-.12,6.52c-1.3,0-2-1-2-2.84s.67-2.89,2-2.89,2,1,2,2.88C219.65,9.73,218.53,10.23,217.6,10.23Zm0-5.3c-.39,0-1.57,0-1.57,2.46s1.15,2.41,1.53,2.41c1.08,0,1.61-.8,1.61-2.42C219.21,4.93,218,4.93,217.64,4.93Z"/><path d="M229.94,3.72V11h-1.76V9.58a2.48,2.48,0,0,1-2.55,1.6,2.21,2.21,0,0,1-2-.89,3.41,3.41,0,0,1-.43-1.88V3.72h1.9V8c0,1.2.44,1.8,1.31,1.8a1.35,1.35,0,0,0,1.3-.78,4,4,0,0,0,.31-1.75V3.72Z"/><path d="M225.63,11.4a2.42,2.42,0,0,1-2.15-1,3.56,3.56,0,0,1-.46-2V3.5h2.33V8c0,1.42.62,1.58,1.09,1.58A1.15,1.15,0,0,0,227.55,9a3.76,3.76,0,0,0,.28-1.66V3.5h2.33v7.72H228v-.83A2.81,2.81,0,0,1,225.63,11.4Zm-2.18-7.47V8.41a3.15,3.15,0,0,0,.39,1.75,2,2,0,0,0,1.79.81A2.28,2.28,0,0,0,228,9.5l.42-1v2.31h1.32V3.93h-1.46V7.31a4,4,0,0,1-.33,1.85,1.55,1.55,0,0,1-1.49.89c-.7,0-1.53-.35-1.53-2V3.93Z"/><path d="M232.44,3.72h1.73V5.4A2.7,2.7,0,0,1,235.05,4a3.3,3.3,0,0,1,1.73-.45V5.64a2.67,2.67,0,0,0-.87-.16c-1,0-1.57.55-1.57,1.64V11h-1.9Z"/><path d="M234.55,11.22h-2.32V3.5h2.16v.87a1.91,1.91,0,0,1,.53-.59,3.63,3.63,0,0,1,1.85-.49H237V6l-.29-.1a2.31,2.31,0,0,0-.8-.15c-.92,0-1.36.45-1.36,1.42Zm-1.89-.43h1.46V7.12a1.63,1.63,0,0,1,1.79-1.85,2.53,2.53,0,0,1,.66.08V3.74a3,3,0,0,0-1.4.39,2.51,2.51,0,0,0-.79,1.34L234,6.8V3.93h-1.29Z"/><path d="M243,.83V11h-2.06V.83Z"/><path d="M243.19,11.24H240.7V.61h2.49Zm-2.06-.44h1.63V1h-1.63Z"/><path d="M250.18.22h1.89V11h-1.75V9.69a2.7,2.7,0,0,1-2.53,1.5,2.78,2.78,0,0,1-2.26-1,4.13,4.13,0,0,1-.79-2.73,3.94,3.94,0,0,1,.79-2.64,2.74,2.74,0,0,1,2.22-.93,2.53,2.53,0,0,1,2.43,1.41Zm-1.76,5c-1.13,0-1.7.78-1.7,2.32s.57,2.4,1.7,2.4a1.51,1.51,0,0,0,1.29-.62,2.88,2.88,0,0,0,.47-1.74,2.84,2.84,0,0,0-.47-1.73A1.51,1.51,0,0,0,248.42,5.18Z"/><path d="M247.79,11.4a3,3,0,0,1-2.42-1,4.39,4.39,0,0,1-.85-2.87,4.2,4.2,0,0,1,.84-2.78,3,3,0,0,1,2.39-1,2.78,2.78,0,0,1,2.21.92V0h2.33V11.24H250.1v-.85A2.89,2.89,0,0,1,247.79,11.4Zm0-7.25a2.54,2.54,0,0,0-2.06.85A3.78,3.78,0,0,0,245,7.5a4,4,0,0,0,.74,2.59,2.55,2.55,0,0,0,2.09.88,2.49,2.49,0,0,0,2.34-1.38l.4-.74v2h1.33V.43h-1.47V6.22l-.4-.78A2.32,2.32,0,0,0,247.75,4.15Zm.67,6c-.87,0-1.91-.45-1.91-2.62s1-2.53,1.91-2.53a1.76,1.76,0,0,1,1.47.71,3.11,3.11,0,0,1,.5,1.86,3.16,3.16,0,0,1-.5,1.87A1.76,1.76,0,0,1,248.42,10.12Zm0-4.72c-.63,0-1.48.22-1.48,2.1,0,2.19,1.11,2.19,1.48,2.19a1.32,1.32,0,0,0,1.12-.54A2.68,2.68,0,0,0,250,7.54a2.65,2.65,0,0,0-.42-1.6A1.32,1.32,0,0,0,248.42,5.4Z"/><path d="M261.61,8H256.4c0,1.43.58,2.15,1.74,2.15A1.51,1.51,0,0,0,259.67,9h1.82a2.8,2.8,0,0,1-.61,1.22,3.6,3.6,0,0,1-2.77,1,3.52,3.52,0,0,1-2.5-.84,3.69,3.69,0,0,1-1.07-2.84,3.6,3.6,0,0,1,1-2.65,3.5,3.5,0,0,1,2.62-1,3.16,3.16,0,0,1,3,1.48A5.39,5.39,0,0,1,261.61,8Zm-5.19-1h3.31a2.25,2.25,0,0,0-.43-1.48A1.44,1.44,0,0,0,258.11,5a1.52,1.52,0,0,0-1.23.54A2.27,2.27,0,0,0,256.42,7Z"/><path d="M258.11,11.42a3.73,3.73,0,0,1-2.65-.9,3.92,3.92,0,0,1-1.14-3,3.81,3.81,0,0,1,1-2.8,3.71,3.71,0,0,1,2.77-1,3.39,3.39,0,0,1,3.18,1.59A5.45,5.45,0,0,1,261.83,8V8.2h-5.21c.07,1.53.9,1.72,1.52,1.72a1.32,1.32,0,0,0,1.33-1l0-.15h2.25L261.7,9a3.09,3.09,0,0,1-.66,1.32A3.83,3.83,0,0,1,258.11,11.42Zm0-7.3a3.31,3.31,0,0,0-2.46.9,3.39,3.39,0,0,0-.9,2.5,3.53,3.53,0,0,0,1,2.68,4,4,0,0,0,5-.14,2.28,2.28,0,0,0,.48-.86h-1.38a1.7,1.7,0,0,1-1.68,1.15c-.89,0-2-.41-2-2.37V7.76h5.21a4.9,4.9,0,0,0-.47-2.27A3,3,0,0,0,258.11,4.12ZM260,7.2H256.2V7a2.42,2.42,0,0,1,.52-1.6,1.72,1.72,0,0,1,1.39-.61,1.66,1.66,0,0,1,1.36.6A2.5,2.5,0,0,1,260,7Zm-3.31-.43h2.87a1.92,1.92,0,0,0-.38-1.12,1.22,1.22,0,0,0-1-.45,1.3,1.3,0,0,0-1.06.46A1.92,1.92,0,0,0,256.64,6.77Z"/><path d="M267.36,6.8V6.34a1.61,1.61,0,0,0-.29-1.08,1.26,1.26,0,0,0-1-.32c-.86,0-1.29.38-1.3,1.14h-1.85a1.88,1.88,0,0,1,.67-1.49,3.76,3.76,0,0,1,2.52-.69,3.56,3.56,0,0,1,2.43.69,2.9,2.9,0,0,1,.69,2.24V11h-1.76V9.72a2.34,2.34,0,0,1-2.38,1.48,2.76,2.76,0,0,1-1.83-.55,1.91,1.91,0,0,1-.65-1.54,2,2,0,0,1,1.12-1.88,5.88,5.88,0,0,1,2.66-.43Zm0,.87a13,13,0,0,0-1.78.09A1.15,1.15,0,0,0,264.47,9q0,1,1.2,1a1.49,1.49,0,0,0,1.62-1.4A5.28,5.28,0,0,0,267.36,7.67Z"/><path d="M265.11,11.42a3,3,0,0,1-2-.6,2.14,2.14,0,0,1-.72-1.71A2.21,2.21,0,0,1,263.65,7a6,6,0,0,1,2.76-.45h.73V6.34a1.42,1.42,0,0,0-.24-.94,1.09,1.09,0,0,0-.81-.25c-.74,0-1.08.29-1.08.94V6.3h-2.28V6.08a2.13,2.13,0,0,1,.75-1.66,4,4,0,0,1,2.66-.74,3.77,3.77,0,0,1,2.58.75,3.12,3.12,0,0,1,.76,2.4v4.41h-2.19v-.73A2.67,2.67,0,0,1,265.11,11.42Zm1.3-4.4a5.78,5.78,0,0,0-2.56.4,1.79,1.79,0,0,0-1,1.69,1.72,1.72,0,0,0,.57,1.38,2.56,2.56,0,0,0,1.69.5,2.14,2.14,0,0,0,2.18-1.35l.42-1V10.8H269v-4a2.73,2.73,0,0,0-.61-2.08,3.41,3.41,0,0,0-2.29-.63,3.56,3.56,0,0,0-2.37.63,1.64,1.64,0,0,0-.59,1.12h1.42c.06-.57.4-1.15,1.5-1.15a1.48,1.48,0,0,1,1.14.39,1.81,1.81,0,0,1,.34,1.23V7Zm-.74,3.24c-.91,0-1.42-.45-1.42-1.27a1.36,1.36,0,0,1,1.3-1.44,13.47,13.47,0,0,1,1.81-.09h.21v.21a6.86,6.86,0,0,1-.06,1A1.71,1.71,0,0,1,265.67,10.26Zm1.47-2.37a12.68,12.68,0,0,0-1.52.09.94.94,0,0,0-.94,1c0,.39.12.83,1,.83a1.27,1.27,0,0,0,1.41-1.22A6.1,6.1,0,0,0,267.14,7.89Z"/><path d="M270.61,8.68h1.71v.09c0,.89.52,1.33,1.54,1.33a1.54,1.54,0,0,0,.9-.24.73.73,0,0,0,.34-.63c0-.45-.42-.77-1.27-1L273,8c-1.45-.35-2.17-1-2.17-2a1.84,1.84,0,0,1,.82-1.56,3.61,3.61,0,0,1,2.16-.59c1.88,0,2.88.78,3,2.34h-1.63A1.81,1.81,0,0,0,275,5.5,1.35,1.35,0,0,0,273.76,5a1.52,1.52,0,0,0-.87.23.71.71,0,0,0-.34.61c0,.42.41.73,1.24.94l1.07.26c1.34.32,2,1,2,1.94a1.91,1.91,0,0,1-.81,1.62,3.68,3.68,0,0,1-2.2.59,3.89,3.89,0,0,1-2.38-.65A2.26,2.26,0,0,1,270.61,8.68Z"/><path d="M273.86,11.42a4.07,4.07,0,0,1-2.51-.7,2.48,2.48,0,0,1-1-2V8.46h2.15v.31c0,.48.14,1.12,1.32,1.12a1.28,1.28,0,0,0,.77-.21.51.51,0,0,0,.26-.45c0-.33-.38-.59-1.11-.77l-.88-.21c-1.55-.37-2.34-1.11-2.34-2.2a2.06,2.06,0,0,1,.91-1.73,3.83,3.83,0,0,1,2.29-.64c2,0,3.09.86,3.21,2.54l0,.23h-2.07l0-.2a1.55,1.55,0,0,0-.13-.63,1.14,1.14,0,0,0-1-.39,1.36,1.36,0,0,0-.75.19.49.49,0,0,0-.24.43c0,.38.58.61,1.07.73l1.07.26c1.45.35,2.18,1.07,2.18,2.15a2.11,2.11,0,0,1-.9,1.79A3.88,3.88,0,0,1,273.86,11.42Zm-3-2.52a2,2,0,0,0,.77,1.47,3.63,3.63,0,0,0,2.25.62,3.45,3.45,0,0,0,2.08-.56A1.7,1.7,0,0,0,276.66,9c0-.86-.61-1.43-1.85-1.73L273.74,7c-.93-.23-1.41-.62-1.41-1.15a1,1,0,0,1,.43-.79,1.81,1.81,0,0,1,1-.26,1.55,1.55,0,0,1,1.37.58,1.4,1.4,0,0,1,.18.64h1.2c-.18-1.28-1.08-1.9-2.75-1.9a3.4,3.4,0,0,0-2,.55A1.63,1.63,0,0,0,271,6.05c0,.88.66,1.46,2,1.78l.88.21c1,.23,1.44.63,1.44,1.19a1,1,0,0,1-.44.8,1.69,1.69,0,0,1-1,.29c-1.36,0-1.72-.75-1.75-1.42Z"/><path d="M279.55,8.83a1.14,1.14,0,0,1,.84.33,1.21,1.21,0,0,1,.32.87,1.13,1.13,0,0,1-1.16,1.16,1.18,1.18,0,0,1-.86-.33,1.27,1.27,0,0,1,0-1.7A1.18,1.18,0,0,1,279.55,8.83Zm.61-.76h-1.25L278.46.83h2.17Z"/><path d="M279.55,11.4a1.39,1.39,0,0,1-1-.39,1.32,1.32,0,0,1-.4-1,1.37,1.37,0,0,1,.39-1,1.41,1.41,0,0,1,1-.38,1.33,1.33,0,0,1,1,.39,1.38,1.38,0,0,1,.39,1,1.35,1.35,0,0,1-1.38,1.37Zm0-2.35a1,1,0,0,0-.71.26,1,1,0,0,0,0,1.39,1,1,0,0,0,.71.27.94.94,0,0,0,.68-.26.92.92,0,0,0,.26-.68,1,1,0,0,0-.26-.72A.91.91,0,0,0,279.55,9.05Zm.81-.76H278.7L278.23.61h2.63Zm-1.25-.44H280L280.4,1h-1.71Z"/><path d="M171.34,5.17V3.87h-2.05V5.16h-1.24A1.47,1.47,0,0,1,167,4.71a1.3,1.3,0,0,1-.33-1,1.18,1.18,0,0,1,.59-1,1.41,1.41,0,0,1,.75-.2h1.48V.85s-4.19-.61-5.15,2.41a2.15,2.15,0,0,0,1.74,2.6h0s-2.18.6-2.2,2.6S166.13,11,166.49,11a22.61,22.61,0,0,0,4.87-.25v-4h1.37V5.17Zm-2.09,4.35h-1.83a1.44,1.44,0,0,1-.76-.2A1.25,1.25,0,0,1,166,8.17a1.35,1.35,0,0,1,.41-1,1.49,1.49,0,0,1,1-.39h1.8Z"/><path d="M195.85,9V0h-2.13V10.07a1.17,1.17,0,0,0,1.16,1.17h1.85V9.59h-.32A.56.56,0,0,1,195.85,9Z"/><path d="M200.07,9V0H198V10.07a1.17,1.17,0,0,0,1.16,1.17H201V9.59h-.31A.57.57,0,0,1,200.07,9Z"/></g></g></svg>