<svg xmlns="http://www.w3.org/2000/svg" viewBox="0 0 38.24 45.69"><defs><style>.cls-1{fill:#fac914;}.cls-2{fill:#e51f26;}.cls-3{fill:#fff200;}</style></defs><g id="Layer_2" data-name="Layer 2"><g id="Layer_1-2" data-name="Layer 1"><rect width="38.24" height="45.69"/><rect class="cls-1" x="0.78" y="10.39" width="10.75" height="34.46"/><polygon class="cls-2" points="12.44 8.67 0 8.67 0 9.59 12.44 9.59 12.44 45.69 13.36 45.69 13.36 9.59 13.36 8.67 12.44 8.67"/><rect class="cls-3" x="2.67" y="12.54" width="6.96" height="30.15"/><path d="M9.63,12.54V42.69h-7V12.54h7m.22-.21H2.45V42.91h7.4V12.33Z"/><rect class="cls-1" x="26.72" y="10.39" width="10.75" height="34.46" transform="translate(64.19 55.24) rotate(-180)"/><polygon class="cls-2" points="25.8 8.67 38.24 8.67 38.24 9.59 25.8 9.59 25.8 45.69 24.88 45.69 24.88 9.59 24.88 8.67 25.8 8.67"/><rect class="cls-3" x="28.61" y="12.54" width="6.96" height="30.15" transform="translate(64.19 55.24) rotate(-180)"/><path d="M35.57,12.54V42.69h-7V12.54h7m.22-.21H28.4V42.91h7.39V12.33Z"/></g></g></svg>