<svg xmlns="http://www.w3.org/2000/svg" viewBox="0 0 246.18 30.75">
  <g id="Layer_2" data-name="Layer 2">
    <g id="Layer_1-2" data-name="Layer 1">
      <path fill="#FFFFFF" d="M28.69,9.77H22.13v-3H19.69V24h2.67v6.26h-16V24H9V6.79H6.56v3H0V.53H28.69Z"/>
      <path fill="#FFFFFF" d="M33.56,27.09q-3.8-3.66-3.8-11.71t3.8-11.72Q37.36,0,44.34,0T55.12,3.66q3.8,3.66,3.79,11.72T55.12,27.09q-3.81,3.66-10.78,3.66T33.56,27.09Zm12.72-3.81a3,3,0,0,0,.65-2.14V9.62a3,3,0,0,0-.65-2.14,3.09,3.09,0,0,0-3.89,0,3,3,0,0,0-.65,2.14V21.14a3,3,0,0,0,.65,2.15,3.14,3.14,0,0,0,3.89,0Z"/>
      <path fill="#FFFFFF" d="M82.19.53H94.7V6.79H92.79V30.22H82.07L70.89,13V24h1.83v6.26H60.21V24h1.91V6.79H60.21V.53H74l10,15.3v-9H82.19Z"/>
      <path fill="#FFFFFF" d="M124.92,20.68H123v7.63a18.83,18.83,0,0,1-4.9,1.7,30.7,30.7,0,0,1-7,.74Q104,30.75,100,27t-4-11.62q0-8.06,4-11.72T111.45,0a28.83,28.83,0,0,1,6.79.76A17.53,17.53,0,0,1,123,2.48V11.6h-9.54V9.81a3.32,3.32,0,0,0-.66-2.31,3.52,3.52,0,0,0-4.24,0,3.32,3.32,0,0,0-.67,2.31V21a3.32,3.32,0,0,0,.67,2.31,3.56,3.56,0,0,0,4.24,0,3.32,3.32,0,0,0,.66-2.31v-.27h-2.06V15h13.51Z"/>
      <path fill="#FFFFFF" d="M130.89,30.12a22.87,22.87,0,0,1-5-1.43V21.14h8.39a2.39,2.39,0,0,0,.53,1.72,2.79,2.79,0,0,0,1.95.53,3.07,3.07,0,0,0,1.7-.36,1.25,1.25,0,0,0,.51-1.09,1.34,1.34,0,0,0-.49-1.05,6,6,0,0,0-1.72-.9l-3.28-1.14a14.76,14.76,0,0,1-6.09-3.78,8.79,8.79,0,0,1-1.85-5.87,8.21,8.21,0,0,1,3-6.85q3-2.35,9.86-2.35a27.57,27.57,0,0,1,6.24.67,15.37,15.37,0,0,1,4.71,1.77V9.27h-7.63c0-1.27-.79-1.91-2.36-1.91a3.37,3.37,0,0,0-1.63.29,1.09,1.09,0,0,0-.47,1,1.18,1.18,0,0,0,.55,1,7.43,7.43,0,0,0,1.81.8l3.32,1.15a12.93,12.93,0,0,1,5.9,3.57A8.6,8.6,0,0,1,150.64,21q0,4.85-3.26,7.32t-9.56,2.48A36.59,36.59,0,0,1,130.89,30.12Z"/>
      <path fill="#FFFFFF" d="M180.17,9.77h-6.56v-3h-2.44V24h2.67v6.26h-16V24h2.67V6.79H158v3h-6.56V.53h28.69Z"/>
      <path fill="#FFFFFF" d="M185,27.09q-3.81-3.66-3.8-11.71T185,3.66Q188.83,0,195.82,0t10.77,3.66q3.79,3.66,3.8,11.72t-3.8,11.71q-3.79,3.66-10.77,3.66T185,27.09Zm12.72-3.81a3,3,0,0,0,.65-2.14V9.62a3,3,0,0,0-.65-2.14,3.09,3.09,0,0,0-3.89,0,3,3,0,0,0-.65,2.14V21.14a3,3,0,0,0,.65,2.15,3.14,3.14,0,0,0,3.89,0Z"/>
      <path fill="#FFFFFF" d="M233.67.53h12.51V6.79h-1.91V30.22H233.55L222.37,13V24h1.83v6.26H211.69V24h1.91V6.79h-1.91V.53h13.77l10,15.3v-9h-1.83Z"/>
    </g>
  </g>
</svg>
